<svg width="24" height="25" viewBox="0 0 24 25" fill="none" xmlns="http://www.w3.org/2000/svg">
<path d="M22.761 11.0114H16V4.01138H17.05C17.8236 4.01207 18.5805 4.2367 19.2293 4.65814C19.878 5.07959 20.3909 5.67982 20.706 6.38638L22.761 11.0114ZM24 15.0734V19.0114H0V7.01138C0 6.21573 0.31607 5.45267 0.87868 4.89006C1.44129 4.32745 2.20435 4.01138 3 4.01138H10L10.757 0.981375C10.8261 0.703997 10.986 0.457705 11.2113 0.281694C11.4365 0.105684 11.7141 0.0100708 12 0.0100708C12.2859 0.0100708 12.5635 0.105684 12.7887 0.281694C13.014 0.457705 13.1739 0.703997 13.243 0.981375L14 4.01138V13.0114H23.627C23.8723 13.6713 23.9986 14.3694 24 15.0734ZM10 11.0114H8V9.01138H6V11.0114H4V13.0114H6V15.0114H8V13.0114H10V11.0114ZM3.058 21.0114C3.02137 21.1756 3.00193 21.3432 3 21.5114C3 22.1744 3.26339 22.8103 3.73223 23.2792C4.20107 23.748 4.83696 24.0114 5.5 24.0114C6.16304 24.0114 6.79893 23.748 7.26777 23.2792C7.73661 22.8103 8 22.1744 8 21.5114C7.99807 21.3432 7.97863 21.1756 7.942 21.0114H3.058ZM17.058 21.0114C17.0214 21.1756 17.0019 21.3432 17 21.5114C17 22.1744 17.2634 22.8103 17.7322 23.2792C18.2011 23.748 18.837 24.0114 19.5 24.0114C20.163 24.0114 20.7989 23.748 21.2678 23.2792C21.7366 22.8103 22 22.1744 22 21.5114C21.9981 21.3432 21.9786 21.1756 21.942 21.0114H17.058Z" fill="#36A693"/>
</svg>
