<svg width="23" height="24" viewBox="0 0 23 24" fill="none" xmlns="http://www.w3.org/2000/svg">
<path d="M5.486 22.1545L4.457 20.4395C8 18.3115 8 13.7415 8 11.0115C8 10.2158 8.31607 9.45275 8.87868 8.89014C9.44129 8.32754 10.2044 8.01147 11 8.01147C11.7956 8.01147 12.5587 8.32754 13.1213 8.89014C13.6839 9.45275 14 10.2158 14 11.0115H12C12 10.7462 11.8946 10.4919 11.7071 10.3044C11.5196 10.1168 11.2652 10.0115 11 10.0115C10.7348 10.0115 10.4804 10.1168 10.2929 10.3044C10.1054 10.4919 10 10.7462 10 11.0115C10 13.9585 10 19.4455 5.486 22.1545ZM13.896 14.0955L11.9 13.9275C11.584 17.6565 10.375 20.5425 8.308 22.5075L9.685 23.9565C12.123 21.6455 13.538 18.3265 13.9 14.0955H13.896ZM16.642 20.3505L14.761 19.6725C14.3549 20.8092 13.8179 21.8948 13.161 22.9075L14.835 24.0015C15.5771 22.8588 16.1835 21.6335 16.642 20.3505ZM18 11.0115C17.9991 9.59476 17.5683 8.21169 16.7646 7.04502C15.9609 5.87836 14.8221 4.98301 13.4987 4.47731C12.1753 3.9716 10.7297 3.87934 9.35276 4.21272C7.97584 4.5461 6.73248 5.28943 5.787 6.34446L7.276 7.67846C7.95128 6.92474 8.83937 6.39367 9.82291 6.15543C10.8064 5.91719 11.8391 5.98301 12.7845 6.34417C13.7298 6.70533 14.5433 7.34485 15.1174 8.1782C15.6916 9.01154 15.9993 9.99949 16 11.0115C16.0369 12.9583 15.8821 14.904 15.538 16.8205L17.501 17.2025C17.8711 15.1603 18.0383 13.0865 18 11.0115ZM6 11.0115C5.99971 10.7324 6.02279 10.4537 6.069 10.1785L4.1 9.84447C4.03399 10.23 4.00054 10.6203 4 11.0115C4 15.6565 2.654 18.0115 0 18.0115V20.0115C3.869 20.0115 6 16.8115 6 11.0115ZM22 11.0115C22.0046 9.35039 21.6283 7.71037 20.9 6.21746L19.1 7.09246C19.695 8.31304 20.0029 9.65358 20 11.0115C20.1369 15.1047 19.3601 19.177 17.726 22.9325L19.526 23.7935C21.2951 19.7711 22.1405 15.4034 22 11.0115ZM2 11.0115C2.00265 8.62533 2.95171 6.33768 4.63896 4.65043C6.32622 2.96317 8.61386 2.01411 11 2.01146C12.9484 2.00497 14.8452 2.63724 16.4 3.81146L17.6 2.21146C15.6994 0.776887 13.3812 0.00417877 11 0.0114646C8.08367 0.0149051 5.28778 1.17494 3.22563 3.23709C1.16347 5.29924 0.00344047 8.09514 0 11.0115V14.0115H2V11.0115Z" fill="#36A693"/>
</svg>
