<svg width="72" height="72" viewBox="0 0 72 72" fill="none" xmlns="http://www.w3.org/2000/svg">
<path d="M0 25.6165C0 13.6053 0 7.59972 3.69909 3.84206C3.74637 3.79403 3.79403 3.74637 3.84206 3.69909C7.59972 0 13.6053 0 25.6165 0H45.6119C57.623 0 63.6286 0 67.3863 3.69909C67.4343 3.74637 67.482 3.79403 67.5292 3.84206C71.2283 7.59972 71.2283 13.6053 71.2283 25.6165V45.6119C71.2283 57.623 71.2283 63.6286 67.5292 67.3863C67.482 67.4343 67.4343 67.482 67.3863 67.5292C63.6286 71.2283 57.623 71.2283 45.6119 71.2283H25.6165C13.6053 71.2283 7.59972 71.2283 3.84206 67.5292C3.79403 67.482 3.74637 67.4343 3.69909 67.3863C0 63.6286 0 57.623 0 45.6119V25.6165Z" fill="url(#paint0_linear_1_3)"/>
<g clip-path="url(#clip0_1_3)">
<path d="M51.4347 26.2466H47.3287C47.3287 26.2466 47.309 28.6108 47.282 29.0635H51.4347C52.9895 29.0635 54.2516 30.328 54.2516 31.8804V38.9213C54.2516 40.4762 52.9895 41.7382 51.4347 41.7382H43.572C41.9336 41.7382 40.7183 41.5759 39.8178 41.2708C38.5361 40.8353 37.8891 40.1071 37.5668 39.1255C36.9321 39.1551 36.3416 39.1575 35.8275 39.1575C35.4437 39.1575 35.0574 39.1575 34.686 39.1649C35.146 41.3495 36.3982 43.3521 39.8203 44.1664C40.5091 44.3312 41.2939 44.4419 42.1673 44.5034V51.0106C42.1673 52.5629 40.9028 53.8274 39.3529 53.8274H32.3094C30.7571 53.8274 29.4926 52.5654 29.4926 51.0106V43.1479C29.4926 36.8105 31.8789 36.8105 35.8299 36.8105C39.6948 36.8105 44.9842 36.8081 44.9842 27.6563V19.7936C44.9842 16.6864 42.4576 14.1599 39.3529 14.1599H32.3094C29.2023 14.1599 26.6757 16.6864 26.6757 19.7936V26.2491H20.2227C17.1155 26.2466 14.5889 28.7732 14.5889 31.8804V38.9213C14.5889 42.0285 17.1155 44.5551 20.2227 44.5551H24.3287V43.1479C24.3287 42.6559 24.3459 42.1909 24.3754 41.7407H20.2227C18.6679 41.7407 17.4058 40.4786 17.4058 38.9238V31.8804C17.4058 30.328 18.6679 29.0635 20.2227 29.0635H28.0854C29.7263 29.0635 30.9391 29.2259 31.8396 29.5309C33.1213 29.9664 33.7683 30.6946 34.0931 31.6762C34.7278 31.6467 35.3182 31.6442 35.8299 31.6442C36.2162 31.6442 36.6024 31.6442 36.9764 31.6368C36.5163 29.4547 35.2641 27.4521 31.842 26.6353C31.1532 26.4705 30.3708 26.3598 29.495 26.3007V19.7936C29.495 18.2413 30.7595 16.9767 32.3119 16.9767H39.3529C40.9052 16.9767 42.1673 18.2388 42.1673 19.7936V27.6538C42.1673 33.9912 39.7834 33.9912 35.8299 33.9912C31.9675 33.9912 26.6781 33.9912 26.6781 43.1454V51.0081C26.6781 54.1128 29.2047 56.6394 32.3119 56.6394H39.3529C42.4576 56.6394 44.9842 54.1128 44.9842 51.0081V44.5526H51.4372C54.5443 44.5526 57.0709 42.0261 57.0709 38.9189V31.8804C57.0685 28.7732 54.5419 26.2466 51.4347 26.2466Z" fill="white"/>
</g>
<defs>
<linearGradient id="paint0_linear_1_3" x1="35.6142" y1="0" x2="35.6142" y2="71.2283" gradientUnits="userSpaceOnUse">
<stop stop-color="#69D7C4"/>
<stop offset="1" stop-color="#36A693"/>
</linearGradient>
<clipPath id="clip0_1_3">
<rect width="42.4795" height="42.4795" fill="white" transform="translate(14.5889 14.1599)"/>
</clipPath>
</defs>
</svg>
