<svg width="24" height="24" viewBox="0 0 24 24" fill="none" xmlns="http://www.w3.org/2000/svg">
<path d="M17.6132 12.8578L23.8782 19.1228L20.7072 22.2938C20.1545 22.8442 19.498 23.2793 18.7758 23.5739C18.0536 23.8685 17.2801 24.0166 16.5002 24.0098C9.25219 24.0098 0.000195101 14.7578 0.000195101 7.50983C-0.00614821 6.72981 0.142247 5.95628 0.436795 5.23398C0.731342 4.51169 1.1662 3.85497 1.7162 3.30183L4.8872 0.131827L11.1522 6.39683L7.02719 10.5218C8.25352 13.4361 10.5688 15.7567 13.4802 16.9898L17.6132 12.8578ZM22.0002 10.0098H24.0002C23.9973 7.35856 22.9428 4.81671 21.068 2.94197C19.1933 1.06724 16.6515 0.0127383 14.0002 0.00982666V2.00983C16.1212 2.01221 18.1546 2.85583 19.6544 4.3556C21.1542 5.85538 21.9978 7.88883 22.0002 10.0098ZM18.0002 10.0098H20.0002C19.9986 8.41901 19.366 6.89381 18.2411 5.76894C17.1162 4.64407 15.591 4.01142 14.0002 4.00983V6.00983C15.0611 6.00983 16.0785 6.43125 16.8286 7.1814C17.5788 7.93154 18.0002 8.94896 18.0002 10.0098Z" fill="#36A693"/>
</svg>
