<svg width="23" height="25" viewBox="0 0 23 25" fill="none" xmlns="http://www.w3.org/2000/svg">
<path d="M20.37 5.43706L21.25 6.31706L22.664 4.90306L19.477 1.71506L18.062 3.13006L18.954 4.02106L17.906 5.18506C16.2838 3.96469 14.3536 3.22053 12.332 3.03606V0.985062H10.332V3.03606C8.31041 3.22053 6.38021 3.96469 4.758 5.18506L3.71 4.02106L4.664 3.06706L3.25 1.65306L0 4.90306L1.414 6.31706L2.294 5.43706L3.272 6.52406C1.81499 8.09284 0.847468 10.0527 0.488079 12.1634C0.12869 14.274 0.393059 16.4436 1.24877 18.4062C2.10447 20.3688 3.51432 22.039 5.30541 23.212C7.09651 24.385 9.19098 25.0098 11.332 25.0098C13.473 25.0098 15.5675 24.385 17.3586 23.212C19.1497 22.039 20.5595 20.3688 21.4152 18.4062C22.2709 16.4436 22.5353 14.274 22.1759 12.1634C21.8165 10.0527 20.849 8.09284 19.392 6.52406L20.37 5.43706ZM11.332 15.9851C10.8921 15.9866 10.4641 15.8425 10.1145 15.5754C9.76502 15.3083 9.51362 14.9332 9.39951 14.5083C9.2854 14.0835 9.31498 13.6328 9.48363 13.2266C9.65229 12.8203 9.95056 12.4812 10.332 12.2621V6.98506H12.332V12.2621C12.7134 12.4812 13.0117 12.8203 13.1804 13.2266C13.349 13.6328 13.3786 14.0835 13.2645 14.5083C13.1504 14.9332 12.899 15.3083 12.5495 15.5754C12.1999 15.8425 11.7719 15.9866 11.332 15.9851Z" fill="#36A693"/>
</svg>
